<?xml version="1.0" encoding="UTF-8" standalone="no"?>
<svg
   width="944"
   height="333.05"
   version="1.1"
   viewBox="0 0 884.99998 312.23336"
   xml:space="preserve"
   id="svg23"
   sodipodi:docname="logo.svg"
   inkscape:version="1.1 (c68e22c387, 2021-05-23)"
   xmlns:inkscape="http://www.inkscape.org/namespaces/inkscape"
   xmlns:sodipodi="http://sodipodi.sourceforge.net/DTD/sodipodi-0.dtd"
   xmlns="http://www.w3.org/2000/svg"
   xmlns:svg="http://www.w3.org/2000/svg"
   xmlns:rdf="http://www.w3.org/1999/02/22-rdf-syntax-ns#"
   xmlns:cc="http://creativecommons.org/ns#"
   xmlns:dc="http://purl.org/dc/elements/1.1/"><sodipodi:namedview
     id="namedview25"
     pagecolor="#ffffff"
     bordercolor="#666666"
     borderopacity="1.0"
     inkscape:pageshadow="2"
     inkscape:pageopacity="0.0"
     inkscape:pagecheckerboard="0"
     showgrid="false"
     inkscape:zoom="1.1970339"
     inkscape:cx="421.87611"
     inkscape:cy="282.7823"
     inkscape:window-width="1920"
     inkscape:window-height="1017"
     inkscape:window-x="-8"
     inkscape:window-y="-8"
     inkscape:window-maximized="1"
     inkscape:current-layer="g19" /><metadata
     id="metadata2"><rdf:RDF><cc:Work
         rdf:about=""><dc:format>image/svg+xml</dc:format><dc:type
           rdf:resource="http://purl.org/dc/dcmitype/StillImage" /><dc:title /></cc:Work></rdf:RDF></metadata><defs
     id="defs7"><clipPath
       id="a"><path
         d="M 0,595.276 H 841.89 V 0 H 0 Z"
         id="path4" /></clipPath></defs><g
     transform="matrix(1.25 0 0 -1.25 -131.75 559.11)"
     id="g21"><g
       clip-path="url(#a)"
       id="g19"><path
         id="path9"
         style="fill:#414042;fill-opacity:1;stroke-width:1.33333"
         d="m 568.49805,105.31641 v 0.002 c -16.06267,0 -29.1747,5.16473 -39.33203,15.48633 -10.15534,10.3348 -15.23243,25.51264 -15.23243,45.55664 0,20.03333 5.02104,35.27217 15.05664,45.71484 10.04974,10.4344 23.04881,15.65039 38.99415,15.65039 15.952,0 28.9695,-5.01625 39.07617,-15.05078 10.10706,-10.05587 15.15625,-25.37975 15.15625,-45.98242 0,-20.58667 -4.93525,-35.97815 -14.82032,-46.13281 -9.86733,-10.17347 -22.83843,-15.24414 -38.89843,-15.24414 z m 225.81445,0 v 0.002 c -16.068,0 -29.17318,5.16473 -39.33984,15.48633 -10.15387,10.3348 -15.23047,25.51264 -15.23047,45.55664 0,20.03333 5.02164,35.27217 15.07031,45.71484 10.0408,10.4344 23.03371,15.65039 38.98438,15.65039 15.94533,0 28.97155,-5.01625 39.07421,-15.05078 10.1056,-10.05587 15.15625,-25.37975 15.15625,-45.98242 0,-20.58667 -4.93321,-35.97815 -14.81054,-46.13281 -9.87934,-10.17347 -22.84163,-15.24414 -38.9043,-15.24414 z m -330.27344,0.002 c -17.484,0 -31.15596,5.50514 -41.02929,16.51367 -9.88094,11.01347 -14.81055,25.30758 -14.81055,42.90625 0,20.66267 5.04751,36.32676 15.14258,46.9961 10.11306,10.66813 23.39023,15.99609 39.85156,15.99609 8.8524,0 16.70888,-0.76312 23.57422,-2.29688 6.87226,-1.52773 11.43982,-3.09524 13.71289,-4.68164 l 0.68164,-53.27929 c 0,-3.096 -8.17047,-4.50336 -17.33594,-4.66016 -9.166,-0.14176 -19.65625,1.76953 -19.65625,1.76953 v 17.89063 h 10.54883 l -0.11719,7.97461 c 0,2.95426 -2.92873,4.4375 -8.76953,4.4375 -5.84827,0 -11.01307,-2.47513 -15.49414,-7.41407 -4.49107,-4.94493 -6.72461,-12.17482 -6.72461,-21.69922 0,-9.54453 2.18234,-16.57976 6.55274,-21.12109 4.36133,-4.53627 10.0779,-6.8125 17.10937,-6.8125 2.95427,0 6.01283,0.47653 9.19336,1.44922 3.182,0.96364 5.30622,1.86676 6.39063,2.71289 1.07525,0.87016 2.09778,1.2832 3.06445,1.2832 0.96214,0 2.52085,-1.12659 4.67578,-3.40234 2.15813,-2.2696 4.09114,-5.70892 5.79687,-10.29492 1.69814,-4.61014 2.54883,-8.14399 2.54883,-10.65039 0,-2.4868 -0.0559,-4.20067 -0.16601,-5.10547 -2.38427,-2.60894 -6.78486,-4.67853 -13.20313,-6.2168 -6.40626,-1.53373 -13.58982,-2.29492 -21.53515,-2.29492 z m 209.30664,1.52148 -28.43359,0.002 c -2.2772,0 -4.11902,0.83051 -5.53516,2.46679 -1.42506,1.66187 -2.13086,3.90259 -2.13086,6.74219 v 102.14844 c 0,5.22547 2.90048,7.83008 8.68555,7.83008 h 29.10742 c 45.09412,-0.59072 60.65811,-24.20353 41.56629,-62.65625 10.02477,-3.59218 6.33255,-34.41049 -2.15418,-42.89844 -9.21922,-9.22055 -23.06147,-13.63477 -41.10547,-13.63477 z m 183.99219,0.002 c -1.93187,0 -3.2942,2.62281 -4.08594,7.84375 -0.34081,2.49586 -0.5039,5.05638 -0.5039,7.65625 0,2.61493 0.16309,5.16491 0.5039,7.65625 0.79175,5.23453 2.15421,7.83984 4.08594,7.83984 h 20.42969 v 85.47852 c 0,2.25613 5.62657,3.40039 16.85937,3.40039 11.24267,0 16.85547,-1.14431 16.85547,-3.40039 v -85.47852 h 19.92188 c 1.9288,0 3.28597,-2.60531 4.08984,-7.83984 0.33328,-2.49134 0.50586,-5.04119 0.50586,-7.65625 0,-2.59987 -0.17258,-5.16039 -0.50586,-7.65625 -0.8038,-5.22094 -2.16104,-7.84375 -4.08984,-7.84375 z m -289.2793,31.16601 v 0.002 c 5.4532,0 10.02317,2.43836 13.70703,7.3125 3.68881,4.88013 5.53907,11.86731 5.53907,20.94531 0,9.08613 -1.79159,16.0654 -5.36719,20.9414 -3.5756,4.89374 -8.23249,7.33204 -13.96289,7.33204 -5.73373,0 -10.35438,-2.4097 -13.87305,-7.2461 -3.5244,-4.82133 -5.2832,-11.73948 -5.2832,-20.77734 0,-9.01827 1.85005,-16.0262 5.53125,-21.01953 3.7008,-4.98867 8.26298,-7.49024 13.70898,-7.49024 z m 225.81446,0 -0.002,0.002 c 5.4532,0 10.01717,2.43836 13.70703,7.3125 3.68881,4.88013 5.53516,11.86731 5.53516,20.94531 0,9.08613 -1.78999,16.0654 -5.36719,20.9414 -3.57106,4.89374 -8.23089,7.33204 -13.96289,7.33204 -5.73373,0 -10.35891,-2.4097 -13.87304,-7.2461 -3.51387,-4.82133 -5.27735,-11.73948 -5.27735,-20.77734 0,-9.01827 1.84175,-16.0262 5.52149,-21.01953 3.6948,-4.98867 8.27101,-7.49024 13.71875,-7.49024 z m -123.94727,1.18164 h 1.70313 c 7.2644,0 14.64129,-0.55405 15.92578,2.88563 4.02367,10.37878 1.62782,16.40136 -17.48123,15.58245 z m 0,36.24414 c 0,0 12.16361,-1.66174 17.01875,1.99457 2.1401,1.77667 3.89227,10.25681 1.21921,14.09573 -2.67306,3.83892 -8.41245,4.0347 -14.66179,4.0347 -1.69813,0 -2.72268,-0.3136 -3.06054,-0.93945 -0.34082,-0.62887 -0.51563,-2.12759 -0.51563,-4.50586 z"
         transform="matrix(0.74999998,0,0,-0.74999998,105.4,447.2884)"
         sodipodi:nodetypes="cccscscscccccssscsccscccsccccccccscscsccsccsccssccssssssccscscscssscscscsscccscscscccccscscscccscsccccccscsscss" /><path
         d="m348.13 279.27s-0.36759 2.2553-0.58249 2.235l-40.924-3.9485c-3.2563-0.31443-5.7853-2.9113-6.0138-6.1744l-1.1243-16.114-31.66-2.2587-2.1535 14.604c-0.47957 3.2484-3.3162 5.6971-6.5997 5.6971h-43.193c-3.2823 0-6.119-2.4487-6.5986-5.6971l-2.1547-14.604-31.66 2.2587-1.1243 16.114c-0.22848 3.2642-2.7575 5.8611-6.0138 6.1756l-40.944 3.9474c-0.21151 0.0204-0.36646-2.2372-0.57797-2.2372l-0.0554-8.8562 34.676-5.5919 1.1356-16.258c0.2296-3.2914 2.8853-5.9527 6.1789-6.1891l43.603-3.1104c0.16514-0.0113 0.32801-0.0181 0.49088-0.0181 3.2767 0 6.1088 2.4499 6.5884 5.6982l2.2157 15.027h31.675l2.2157-15.027c0.47843-3.2473 3.314-5.6971 6.5952-5.6971 0.16061 0 0.32122 6e-3 0.47844 0.017l43.609 3.1104c3.2925 0.23639 5.9493 2.8978 6.1789 6.1891l1.1344 16.258 34.661 5.6168z"
         fill="#fff"
         id="path11" /><path
         transform="matrix(.75 0 0 -.75 105.4 447.29)"
         d="m141.91 8c-15.358 3.4143-30.551 8.1666-44.795 15.336 0.32575 12.577 1.1388 24.628 2.7871 36.869-5.5316 3.544-11.345 6.5857-16.512 10.734-5.2496 4.0386-10.612 7.9037-15.365 12.627-9.4963-6.2811-19.546-12.184-29.9-17.395-11.161 12.012-21.598 24.977-30.123 39.484 6.4138 10.376 13.11 20.101 20.34 29.33h0.20117v89.039c0.16287 0.00133 0.32692 0.00877 0.48828 0.02344l54.586 5.2617c2.8593 0.27598 5.0998 2.578 5.2988 5.4434l1.6836 24.096 47.615 3.3984 3.2793-22.24c0.42526-2.8834 2.8998-5.0195 5.8164-5.0195h57.59c2.9151 0 5.3892 2.1361 5.8144 5.0195l3.2793 22.24 47.617-3.3984 1.6816-24.096c0.20057-2.8653 2.4395-5.1659 5.2988-5.4434l54.564-5.2617c0.16136-0.01507 0.32346-0.02184 0.48632-0.02344v-7.1055l0.02344-0.00781v-81.926h0.20117c7.2312-9.2294 13.923-18.955 20.34-29.33-8.5221-14.508-18.964-27.473-30.125-39.484-10.351 5.2104-20.406 11.113-29.902 17.395-4.7519-4.7233-10.104-8.5883-15.361-12.627-5.1652-4.1487-10.987-7.1904-16.508-10.734 1.6438-12.241 2.4579-24.292 2.7852-36.869-14.245-7.1694-29.437-11.922-44.803-15.336-6.1348 10.311-11.745 21.475-16.631 32.391-5.794-0.96819-11.615-1.3271-17.443-1.3965v-0.007813c-0.04067 0-0.07862 0.007813-0.11328 0.007813-0.03614 0-0.07507-0.007813-0.11133-0.007813v0.007813c-5.8393 0.069333-11.656 0.4283-17.451 1.3965-4.8831-10.915-10.489-22.08-16.633-32.391zm-113.46 227.8c0.022667 5.2752 0.089844 11.054 0.089844 12.205 0 51.838 65.76 76.754 147.46 77.041h0.20117c81.701-0.28654 147.44-25.203 147.44-77.041 0-1.1718 0.07157-6.9268 0.09571-12.205l-49.064 4.7324-1.6914 24.225c-0.20359 2.9196-2.5257 5.2435-5.4453 5.4531l-58.145 4.1484c-0.14176 0.01066-0.28357 0.01562-0.42382 0.01562-2.8895 0-5.3818-2.1219-5.8086-5.0234l-3.334-22.611h-47.443l-3.334 22.611c-0.4479 3.0433-3.168 5.2325-6.2324 5.0078l-58.145-4.1484c-2.9196-0.20961-5.2417-2.5335-5.4453-5.4531l-1.6895-24.225-49.084-4.7324z"
         fill="#478cbf"
         id="path13" /><path
         d="m 237.15987,326.81363 c -13.629,0 -24.6735,-11.037 -24.6735,-24.65925 0,-13.63125 11.0445,-24.6735 24.6735,-24.6735 13.61925,0 24.66525,11.04225 24.66525,24.6735 0,13.62225 -11.046,24.65925 -24.66525,24.65925 z"
         fill="#ffffff"
         id="path15"
         sodipodi:nodetypes="sssss"
         style="stroke-width:0.75" /><path
         d="m 237.23182,313.96237 c -9.042,0 -16.368,-7.3353 -16.368,-16.377 0,-9.0417 7.32653,-16.3695 16.368,-16.3695 9.051,0 16.3755,7.32795 16.3755,16.3695 0,9.04155 -7.3248,16.377 -16.3755,16.377 z"
         fill="#414042"
         id="path17"
         sodipodi:nodetypes="sssss"
         style="stroke-width:0.75" /><path
         d="m 182.87049,343.83662 c -4.38623,0 -7.941,-3.23595 -7.941,-7.21725 v -22.71225 c 0,-3.98468 3.5547,-7.21725 7.941,-7.21725 4.3863,0 7.95,3.23257 7.95,7.21725 v 22.71225 c 0,3.9813 -3.56348,7.21725 -7.95,7.21725 z"
         style="fill:#ffffff;stroke-width:0.75"
         id="path6116" /><path
         d="m 291.48941,344.31765 c -4.38623,0 -7.941,-3.23595 -7.941,-7.21725 v -22.71225 c 0,-3.98468 3.5547,-7.21725 7.941,-7.21725 4.3863,0 7.95,3.23257 7.95,7.21725 v 22.71225 c 0,3.9813 -3.56348,7.21725 -7.95,7.21725 z"
         style="fill:#ffffff;stroke-width:0.75"
         id="path6116-8" /></g></g></svg>
